<svg width="16" height="16" viewBox="0 0 16 16" fill="none" xmlns="http://www.w3.org/2000/svg">
<path d="M10.318 8.59332L11.328 14.2773C11.3393 14.3443 11.3299 14.413 11.3011 14.4745C11.2723 14.5359 11.2253 14.5871 11.1666 14.6212C11.1079 14.6553 11.0402 14.6706 10.9726 14.6651C10.9049 14.6597 10.8405 14.6337 10.788 14.5907L8.40135 12.7993C8.28613 12.7132 8.14617 12.6667 8.00235 12.6667C7.85853 12.6667 7.71857 12.7132 7.60335 12.7993L5.21268 14.59C5.16023 14.6329 5.09593 14.6589 5.02835 14.6644C4.96077 14.6698 4.89313 14.6545 4.83446 14.6206C4.77579 14.5866 4.72887 14.5355 4.69996 14.4742C4.67106 14.4129 4.66154 14.3442 4.67268 14.2773L5.68202 8.59332" stroke="#0A0A0A" stroke-width="1.33333" stroke-linecap="round" stroke-linejoin="round"/>
<path d="M8 9.33331C10.2091 9.33331 12 7.54245 12 5.33331C12 3.12417 10.2091 1.33331 8 1.33331C5.79086 1.33331 4 3.12417 4 5.33331C4 7.54245 5.79086 9.33331 8 9.33331Z" stroke="#0A0A0A" stroke-width="1.33333" stroke-linecap="round" stroke-linejoin="round"/>
</svg>
